<svg width="18" height="12" viewBox="0 0 18 12" fill="none" xmlns="http://www.w3.org/2000/svg">
<path fill-rule="evenodd" clip-rule="evenodd" d="M16.33 0.660004H15.33C14.7778 0.660004 14.33 1.13556 14.33 1.72219V10.9278C14.33 11.5144 14.7778 11.99 15.33 11.99H16.33C16.8823 11.99 17.33 11.5144 17.33 10.9278V1.72219C17.33 1.13556 16.8823 0.660004 16.33 0.660004ZM10.66 3.32H11.66C12.2123 3.32 12.66 3.78581 12.66 4.3604V10.9496C12.66 11.5242 12.2123 11.99 11.66 11.99H10.66C10.1077 11.99 9.66002 11.5242 9.66002 10.9496V4.3604C9.66002 3.78581 10.1077 3.32 10.66 3.32ZM7.00005 5.98996H6.00005C5.44776 5.98996 5.00005 6.43767 5.00005 6.98996V10.99C5.00005 11.5422 5.44776 11.99 6.00005 11.99H7.00005C7.55233 11.99 8.00005 11.5422 8.00005 10.99V6.98996C8.00005 6.43767 7.55233 5.98996 7.00005 5.98996ZM2.33 7.98996H1.33C0.777717 7.98996 0.330002 8.43767 0.330002 8.98996V10.99C0.330002 11.5422 0.777717 11.99 1.33 11.99H2.33C2.88229 11.99 3.33 11.5422 3.33 10.99V8.98996C3.33 8.43767 2.88229 7.98996 2.33 7.98996Z" fill="black"/>
</svg>
