<svg width="18" height="12" viewBox="0 0 18 12" fill="none" xmlns="http://www.w3.org/2000/svg">
<path fill-rule="evenodd" clip-rule="evenodd" d="M9.017 2.49216C11.4419 2.49226 13.7741 3.42402 15.5316 5.09485C15.6639 5.22384 15.8754 5.22222 16.0058 5.0912L17.2708 3.81448C17.3368 3.74803 17.3736 3.65802 17.3731 3.56436C17.3725 3.47071 17.3347 3.38114 17.2679 3.31546C12.6552 -1.10515 5.37808 -1.10515 0.765358 3.31546C0.698539 3.38109 0.660627 3.47063 0.660011 3.56429C0.659395 3.65794 0.696126 3.74798 0.762075 3.81448L2.02749 5.0912C2.15775 5.22241 2.36944 5.22404 2.5017 5.09485C4.25937 3.42391 6.59184 2.49215 9.017 2.49216ZM9.01697 6.64594C10.3493 6.64586 11.6341 7.14108 12.6217 8.03538C12.7553 8.1623 12.9657 8.15955 13.0959 8.02918L14.3595 6.75246C14.4261 6.68549 14.463 6.59464 14.462 6.50024C14.4611 6.40584 14.4223 6.31576 14.3544 6.25016C11.347 3.45262 6.68954 3.45262 3.68209 6.25016C3.61416 6.31576 3.5754 6.40588 3.57451 6.50032C3.57362 6.59475 3.61067 6.68559 3.67735 6.75246L4.94058 8.02918C5.07079 8.15955 5.28121 8.1623 5.41479 8.03538C6.40174 7.14167 7.68551 6.64649 9.01697 6.64594ZM11.5482 9.44062C11.5501 9.53529 11.5129 9.62656 11.4453 9.69288L9.25956 11.8987C9.19548 11.9635 9.10813 12 9.01698 12C8.92583 12 8.83848 11.9635 8.7744 11.8987L6.58829 9.69288C6.52075 9.62651 6.4836 9.53521 6.48561 9.44054C6.48761 9.34587 6.52859 9.25623 6.59887 9.19277C7.99477 8.01211 10.0392 8.01211 11.4351 9.19277C11.5053 9.25628 11.5462 9.34595 11.5482 9.44062Z" fill="black"/>
</svg>
